#!OML:ASF F:\VICON\USERDATA\INSTALL\rory3\rory3.ASF
:FULLY-SPECIFIED
:DEGREES
350
root -0.390526 19.1716 -11.7408 23.3032 -43.5324 -1.26836
lowerback -8.74332 3.29776 4.89873
upperback -9.25865 4.01706 2.2951
thorax -4.63154 1.72578 -0.142752
lowerneck -12.2663 14.0656 8.58827
upperneck 24.5678 21.0935 -10.9943
head 12.2797 9.10997 -2.14028
rclavicle -3.85891e-014 -1.59028e-015
rhumerus -100.129 -59.2431 80.5674
rradius 13.7164
rwrist 105.337
rhand -0.639569 4.79548
rfingers 7.12502
rthumb 24.9776 -23.5919
lclavicle -3.85891e-014 -1.59028e-015
lhumerus -2.18436 21.5512 29.3381
lradius 11.6229
lwrist -82.1408
lhand -9.30498 18.5264
lfingers 7.12502
lthumb 16.6528 47.832
rfemur 140.722 -194.076 -162.274
rtibia 46.3035
rfoot -10.7534 -32.1734
rtoes 47.1098
lfemur -45.567 -2.59896 -26.6218
ltibia 42.7303
lfoot 32.2094 19.3744
ltoes -14.2296
351
root -0.383952 19.2204 -11.6232 22.3527 -41.4663 -0.429067
lowerback -8.0962 2.84053 4.40588
upperback -8.92256 3.48249 1.99001
thorax -4.64895 1.49064 -0.24097
lowerneck -12.957 13.6659 8.11195
upperneck 24.5736 20.4656 -10.6272
head 12.2382 8.79876 -2.01906
rclavicle 8.24832e-014 0
rhumerus -104.166 -58.7632 85.9775
rradius 14.0278
rwrist 107.503
rhand -2.46682 5.14031
rfingers 7.12502
rthumb 23.2256 -23.4792
lclavicle 8.24832e-014 0
lhumerus -1.83363 15.6083 27.4812
lradius 11.6837
lwrist -78.0025
lhand -9.16786 19.1524
lfingers 7.12502
lthumb 16.7849 48.4469
rfemur 140.775 -193.856 -162.39
rtibia 46.2754
rfoot -11.8553 -31.3723
rtoes 48.3318
lfemur -45.7219 -2.70284 -26.8212
ltibia 42.6603
lfoot 33.0667 17.8534
ltoes -14.7048
352
root -0.381454 19.2593 -11.5223 21.453 -39.6135 0.172854
lowerback -6.86372 2.42968 3.69401
upperback -8.82329 3.05302 1.8754
thorax -5.26622 1.31129 -0.0347051
lowerneck -13.0212 13.2554 7.70474
upperneck 24.4452 19.8747 -10.4306
head 12.061 8.52916 -2.004
rclavicle -3.75478e-014 3.89618e-014
rhumerus -104.297 -58.5414 87.4227
rradius 14.138
rwrist 107.655
rhand -3.8891 4.57071
rfingers 7.12502
rthumb 21.8604 -24.2145
lclavicle -3.75478e-014 3.89618e-014
lhumerus -2.12396 9.06695 25.6507
lradius 12.1881
lwrist -73.1792
lhand -8.39804 20.0478
lfingers 7.12502
lthumb 17.5258 49.2778
rfemur 140.858 -194.424 -162.505
rtibia 46.3098
rfoot -12.2517 -32.1626
rtoes 48.9612
lfemur -45.7976 -2.76902 -26.8027
ltibia 42.5016
lfoot 33.5471 17.256
ltoes -12.2827
353
root -0.38129 19.2839 -11.3011 19.0476 -39.3905 0.307976
lowerback -4.92702 2.62765 3.96182
upperback -7.93983 3.41922 1.69132
thorax -5.37163 1.49257 -0.437361
lowerneck -12.897 12.9025 7.13989
upperneck 24.2448 19.4092 -10.2452
head 11.8212 8.31293 -1.95761
rclavicle -1.65426e-014 1.51076e-014
rhumerus -104.477 -58.3989 89.1659
rradius 14.2775
rwrist 107.921
rhand -3.4649 6.74304
rfingers 7.12502
rthumb 22.2677 -21.994
lclavicle -1.65426e-014 1.51076e-014
lhumerus -2.52637 3.24559 24.1238
lradius 12.5676
lwrist -68.8773
lhand -7.82051 21.334
lfingers 7.12502
lthumb 18.0815 50.5135
rfemur 143.274 -195.112 -162.4
rtibia 46.1713
rfoot -11.001 -30.6771
rtoes 48.6963
lfemur -43.3897 -4.09717 -26.354
ltibia 42.2646
lfoot 30.9973 21.2025
ltoes -6.7787
354
root -0.360944 19.305 -11.2831 19.0968 -36.3299 1.74438
lowerback -4.10809 1.83044 2.20207
upperback -8.36487 2.4238 1.60558
thorax -6.38454 1.08284 0.413791
lowerneck -13.6311 12.5367 6.63579
upperneck 24.5241 18.9325 -9.97939
head 11.9379 8.03998 -1.82995
rclavicle -5.17213e-014 -2.46493e-014
rhumerus -108.188 -57.752 94.8246
rradius 14.6379
rwrist 110.163
rhand -3.48628 8.17514
rfingers 7.12502
rthumb 22.2472 -20.5644
lclavicle -5.17213e-014 -2.46493e-014
lhumerus -2.69933 -2.31583 22.743
lradius 12.8777
lwrist -64.1844
lhand -8.42964 22.2954
lfingers 7.12502
lthumb 17.4954 51.5281
rfemur 141.656 -195.17 -163.361
rtibia 46.3119
rfoot -16.1876 -29.6696
rtoes 51.7381
lfemur -45.4003 -2.42872 -27.6139
ltibia 41.8795
lfoot 34.6985 18.584
ltoes -6.34602
355
root -0.347309 19.3147 -11.1468 17.8667 -34.8464 2.84026
lowerback -2.87069 1.61278 1.31936
upperback -8.02838 2.16004 1.25709
thorax -6.74617 0.999821 0.513571
lowerneck -14.7443 12.2101 6.42845
upperneck 24.9659 18.4888 -9.81166
head 12.2462 7.77048 -1.74861
rclavicle -3.04389e-014 7.95139e-015
rhumerus -107.213 -57.6123 94.8988
rradius 14.6807
rwrist 109.543
rhand -3.59819 7.56862
rfingers 7.12502
rthumb 22.1398 -21.1837
lclavicle -3.04389e-014 7.95139e-015
lhumerus -3.11484 -8.65034 21.2738
lradius 13.463
lwrist -58.3945
lhand -9.66688 22.724
lfingers 7.12502
lthumb 16.3044 52.0585
rfemur 142.07 -194.716 -164.036
rtibia 46.3366
rfoot -16.5455 -29.0094
rtoes 51.3381
lfemur -45.1213 -3.6307 -27.857
ltibia 41.4542
lfoot 33.5154 20.3479
ltoes -1.07848
356
root -0.333409 19.3164 -10.9954 16.5846 -33.3818 3.71446
lowerback -1.63032 1.30985 0.868099
upperback -7.84268 1.76787 1.0257
thorax -7.26488 0.827089 0.508322
lowerneck -14.1404 11.9408 6.01137
upperneck 24.6531 18.1557 -9.75635
head 11.9206 7.63698 -1.7703
rclavicle -1.36764e-013 -4.05521e-014
rhumerus -102.254 -58.2949 90.5515
rradius 14.493
rwrist 107.045
rhand -3.50945 6.18911
rfingers 7.12502
rthumb 22.225 -22.5531
lclavicle -1.36764e-013 -4.05521e-014
lhumerus -4.54411 -14.9635 20.0137
lradius 14.3963
lwrist -52.8887
lhand -10.5241 23.1828
lfingers 7.12502
lthumb 15.4789 52.5831
rfemur 142.901 -194.549 -164.582
rtibia 46.3244
rfoot -17.7637 -27.8036
rtoes 51.7903
lfemur -44.5751 -5.318 -27.7814
ltibia 41.0247
lfoot 33.5096 22.4503
ltoes 2.79134
357
root -0.326787 19.2947 -10.8833 16.2329 -32.0924 4.12675
lowerback -0.745563 1.12635 0.371492
upperback -7.81823 1.51788 0.898289
thorax -7.76041 0.732064 0.646817
lowerneck -13.6814 11.606 5.60449
upperneck 24.197 17.6973 -9.70047
head 11.5629 7.4478 -1.80453
rclavicle -1.96797e-014 -1.98785e-014
rhumerus -99.1675 -58.5559 88.2219
rradius 14.4615
rwrist 105.599
rhand -3.46727 5.552
rfingers 7.12502
rthumb 22.2655 -23.1854
lclavicle -1.96797e-014 -1.98785e-014
lhumerus -5.76413 -20.7532 18.9619
lradius 15.2701
lwrist -47.801
lhand -11.3096 24.4521
lfingers 7.12502
lthumb 14.7222 53.9093
rfemur 142.96 -194.682 -164.926
rtibia 46.1782
rfoot -19.3957 -28.6428
rtoes 51.5833
lfemur -45.1761 -4.09102 -28.2821
ltibia 40.7262
lfoot 34.1622 21.4454
ltoes 3.38468
358
root -0.315128 19.2809 -10.7475 15.7768 -30.9571 4.0868
lowerback 0.365473 1.09194 0.432852
upperback -7.58077 1.48585 0.770474
thorax -8.1454 0.709683 0.460629
lowerneck -13.8654 11.4045 5.63477
upperneck 24.2983 17.432 -9.7777
head 11.6257 7.30976 -1.87074
rclavicle 8.5875e-014 4.13472e-014
rhumerus -97.9833 -58.5763 87.9892
rradius 14.4776
rwrist 104.779
rhand -3.42911 5.26551
rfingers 7.12502
rthumb 22.3021 -23.4675
lclavicle 8.5875e-014 4.13472e-014
lhumerus -6.57243 -21.4998 18.0799
lradius 15.3171
lwrist -47.5497
lhand -12.5101 25.2298
lfingers 7.12502
lthumb 13.5654 54.7679
rfemur 143.649 -194.809 -164.776
rtibia 45.8598
rfoot -21.522 -25.9932
rtoes 53.1022
lfemur -45.3736 -5.95031 -27.0552
ltibia 40.4962
lfoot 31.4435 25.5535
ltoes 9.11422
359
root -0.304151 19.2469 -10.6382 15.492 -29.5076 4.46238
lowerback 1.19326 0.888636 0.0920618
upperback -7.30163 1.19431 0.575703
thorax -8.32709 0.584154 0.456726
lowerneck -14.0806 11.1621 5.63443
upperneck 23.9689 17.0716 -9.92166
head 11.5247 7.13819 -1.97356
rclavicle 1.2921e-015 -3.81667e-014
rhumerus -96.2286 -58.7358 86.8179
rradius 14.3469
rwrist 103.162
rhand -3.22726 4.89047
rfingers 7.12502
rthumb 22.4958 -23.8192
lclavicle 1.2921e-015 -3.81667e-014
lhumerus -7.45749 -21.7267 17.1501
lradius 15.3642
lwrist -47.455
lhand -14.2996 24.9816
lfingers 7.12502
lthumb 11.8402 54.6269
rfemur 143.9 -194.747 -164.984
rtibia 45.5857
rfoot -22.7461 -25.8707
rtoes 53.0726
lfemur -46.1734 -6.3111 -26.8487
ltibia 40.3862
lfoot 31.0423 27.0109
ltoes 9.96024
360
root -0.294893 19.1975 -10.515 15.3403 -28.359 4.71333
lowerback 1.43694 0.793311 0.0310203
upperback -6.73792 1.05032 0.289835
thorax -7.85021 0.51028 0.202414
lowerneck -14.567 10.8961 5.34829
upperneck 23.4457 16.653 -9.85232
head 11.3483 6.93798 -1.9544
rclavicle 1.19271e-014 2.22639e-014
rhumerus -95.2288 -58.8503 86.1828
rradius 14.3031
rwrist 101.698
rhand -2.92754 4.52807
rfingers 7.12502
rthumb 22.7835 -24.1465
lclavicle 1.19271e-014 2.22639e-014
lhumerus -8.29272 -20.5856 16.0591
lradius 15.4869
lwrist -48.3485
lhand -15.1007 24.7454
lfingers 7.12502
lthumb 11.0676 54.4335
rfemur 144.179 -194.534 -165.106
rtibia 45.1895
rfoot -22.9786 -26.3488
rtoes 52.0841
lfemur -47.116 -5.70073 -26.9628
ltibia 40.3756
lfoot 32.0206 24.7938
ltoes 5.22935
